<?xml version="1.0" encoding="UTF-8" standalone="no"?>
<!-- Created with Inkscape (http://www.inkscape.org/) -->

<svg
   xmlns:dc="http://purl.org/dc/elements/1.1/"
   xmlns:cc="http://creativecommons.org/ns#"
   xmlns:rdf="http://www.w3.org/1999/02/22-rdf-syntax-ns#"
   xmlns:svg="http://www.w3.org/2000/svg"
   xmlns="http://www.w3.org/2000/svg"
   xmlns:xlink="http://www.w3.org/1999/xlink"
   version="1.1"
   width="443"
   height="602"
   viewBox="0 0 12502444 16989778"
   id="svg2"
   xml:space="preserve"
   style="fill-rule:evenodd"><metadata
   id="metadata176"><rdf:RDF><cc:Work
       rdf:about=""><dc:format>image/svg+xml</dc:format><dc:type
         rdf:resource="http://purl.org/dc/dcmitype/StillImage" /><dc:title></dc:title></cc:Work></rdf:RDF></metadata>
 <defs
   id="defs4">
    <clipPath
   id="id0">
     <path
   d="m 8633510,5714190 c -24600,1540 -49320,2310 -74220,2310 -543320,0 -1805320,-278760 -2291740,-696690 -509520,386070 -1792310,696690 -2326840,696690 -25070,0 -49840,-3070 -74390,-7570 -1240,121770 5090,247990 12650,362790 28280,429090 103540,859700 217800,1274050 359680,1304120 1095870,2412390 2151410,3253100 1056450,-841400 1793430,-1950700 2153930,-3255750 114440,-414300 189940,-844870 218490,-1273940 7470,-112460 13760,-235680 12910,-354990 z"
   id="path7" />
    </clipPath>
 <clipPath
   id="id0-7"><path
     d="m 8633510,5714190 c -24600,1540 -49320,2310 -74220,2310 -543320,0 -1805320,-278760 -2291740,-696690 -509520,386070 -1792310,696690 -2326840,696690 -25070,0 -49840,-3070 -74390,-7570 -1240,121770 5090,247990 12650,362790 28280,429090 103540,859700 217800,1274050 359680,1304120 1095870,2412390 2151410,3253100 1056450,-841400 1793430,-1950700 2153930,-3255750 114440,-414300 189940,-844870 218490,-1273940 7470,-112460 13760,-235680 12910,-354990 z"
     id="path7-4" /></clipPath><clipPath
   id="id0-0"><path
     d="m 8633510,5714190 c -24600,1540 -49320,2310 -74220,2310 -543320,0 -1805320,-278760 -2291740,-696690 -509520,386070 -1792310,696690 -2326840,696690 -25070,0 -49840,-3070 -74390,-7570 -1240,121770 5090,247990 12650,362790 28280,429090 103540,859700 217800,1274050 359680,1304120 1095870,2412390 2151410,3253100 1056450,-841400 1793430,-1950700 2153930,-3255750 114440,-414300 189940,-844870 218490,-1273940 7470,-112460 13760,-235680 12910,-354990 z"
     id="path7-8" /></clipPath></defs>
 <g
   transform="translate(0,-10221.599)"
   id="Layer_x0020_1">
  <metadata
   id="CorelCorpID_0Corel-Layer" />
  
  
  
  
  
  
  
  
  
  
  
  
  
  
  
  
  
  
  
  
  
  
  
  
  
  
  
  
  
  
  
  
  
  
  
  
  
  
  
  
  
  
  
  
  
  
  
  
  
  
  
  
  
  
  
  
  
  
  
  
  
  
  
  <path
   d="m 6251220.9,16889640 c 1782478.2,0 3487806,-141001 4487913.1,-423112 423231,-76757 423231,-294733 423231,-576954 423231,-141000 205114,-640870 499999,-640870 -294885,77082 -358922,-499979 -717953,-422896 0,-500196 -500108,-564223 -923231,-423438 -846352.1,282220 -2346566.5,346355 -3769905,346355 -1423228,-64135 -2910711.4,-64135 -3769850.2,-346355 -423123.2,-140785 -923011.9,-76758 -923011.9,423438 -359140.1,-77083 -423231.4,499978 -718062.23,422896 294830.83,0 76822.63,499870 499998.63,640870 0,282221 0,500197 435961.9,576954 987157.7,282111 2692703.8,423112 4474909.1,423112 z"
   id="_x32_1445608"
   style="fill:#ffffff;fill-opacity:1;stroke:#c09300;stroke-width:212508.125;stroke-linecap:round;stroke-linejoin:round;stroke-opacity:1" /><path
   d="M 6323191,8719772.1 12444404,14402260 12008616,4081957.2 C 11944589,2517885.6 10585383,2876754.1 9598046.9,3440923 8597818.1,4081957.2 7456806.1,4081957.2 6251276.7,3658734.9 5046018.9,4081957.2 3904843.4,4081957.2 2904615.4,3440923 1917386.8,2876754.1 558289.36,2517831.1 494100,4081957.2 L 58040.008,14402260 6323191,8719772.1 z"
   id="_x32_1312736"
   style="fill:#ffffff;fill-opacity:1;stroke:#c09300;stroke-width:113538.0078125;stroke-linecap:round;stroke-linejoin:round;stroke-miterlimit:4;stroke-opacity:1;stroke-dasharray:none" /><use
   transform="matrix(-1,0,0,1,12502551,0)"
   id="use3074"
   x="0"
   y="0"
   width="900"
   height="600"
   xlink:href="#_x32_1313880" /><path
   d="m 6533374.2,9850938.6 859139.6,3910668.4 -282208.6,282003 -294884.2,-217976 -487268.4,-3487283 205168.1,3487283 -282153.9,358922 -282100.3,-358922 205223.9,-3487283 -487160,3487283 -295156.1,217976 -281936.9,-282003 859029.6,-3910668.4 c 188101.8,0 376208.3,0 564307.2,0 z"
   id="_x32_1313440"
   style="fill:#c09300;fill-opacity:1;stroke:#c09300;stroke-width:95982.8125;stroke-linecap:square;stroke-opacity:1" /><path
   d="M 1199164.7,3722925.2 776042.31,13761607 57926.462,14402260 493941.93,4081957.2 c 205113.26,-141056.5 564253.37,-359032 705222.77,-359032 z"
   id="_x32_1313528"
   style="fill:#c09300;fill-opacity:1" /><path
   d="M 2058193.5,4440879.3 1699162.4,12838297 981263.68,13573006 1417171.9,3876873.9 c 141131.1,140946.7 564308,487085.6 641021.6,564005.4 z"
   id="_x32_1313616"
   style="fill:#c09300;fill-opacity:1" /><path
   d="m 2840400.6,5081913.6 -281936,7003778.4 -576983.8,563896 359084.7,-7990733.2 c 140750.4,141055.6 422848.9,346193.4 499835.1,423058.8 z"
   id="_x32_1313704"
   style="fill:#c09300;fill-opacity:1" /><path
   d="m 3686754.3,5440891.1 -282099.4,5969168.9 -564253.4,457548 282099.4,-6644584.3 c 141131.1,64027.7 423176.9,217867.4 564253.4,217867.4 z"
   id="_x32_1313792"
   style="fill:#c09300;fill-opacity:1" /><path
   d="m 4469015.9,5440891.1 -205332.2,4974433.9 -576875.8,564224 218008.2,-5474467.5 c 140859.4,-54.7 499945.1,-54.7 564199.8,-64190.4 z"
   id="_x32_1313880"
   style="fill:#c09300;fill-opacity:1" /><use
   transform="matrix(-1,0,0,1,12502224,0)"
   id="use3064"
   x="0"
   y="0"
   width="900"
   height="600"
   xlink:href="#_x32_1313528" /><use
   transform="matrix(-1,0,0,1,12502605,0)"
   id="use3068"
   x="0"
   y="0"
   width="900"
   height="600"
   xlink:href="#_x32_1313616" /><use
   transform="matrix(-1,0,0,1,12502728,0)"
   id="use3070"
   x="0"
   y="0"
   width="900"
   height="600"
   xlink:href="#_x32_1313704" /><use
   transform="matrix(-1,0,0,1,12502442,0)"
   id="use3072"
   x="0"
   y="0"
   width="900"
   height="600"
   xlink:href="#_x32_1313792" /><path
   d="M 4327884,8133299.5 2622609.5,14184556 4969177.1,14543642 5969120.6,9992265.6 4327884,8133299.5 z"
   id="_x32_1314408"
   style="fill:#ffffff;fill-opacity:1;stroke:#c09300;stroke-width:106254.0625;stroke-linecap:round;stroke-linejoin:round;stroke-opacity:1" /><path
   d="M 8174721.1,8133299.5 9879940.1,14184556 7533590.4,14543642 6533374.2,9992265.6 8174721.1,8133299.5 z"
   id="_x32_1314496"
   style="fill:#ffffff;fill-opacity:1;stroke:#c09300;stroke-width:106254.0625;stroke-linecap:round;stroke-linejoin:round;stroke-opacity:1" /><use
   transform="matrix(-1,0,0,1,12502033,0)"
   id="use4088"
   x="0"
   y="0"
   width="218"
   height="300"
   xlink:href="#_x32_1314584" /><use
   transform="matrix(-1,0,0,1,12483943,0)"
   id="use4084"
   x="0"
   y="0"
   width="218"
   height="300"
   xlink:href="#_x32_1314936" /><path
   d="m 3763686,10197459 205167.8,499869 1108709.8,-1058918.1"
   id="_x32_1314584"
   style="fill:none;stroke:#c09300;stroke-width:113549.4609375;stroke-linecap:round;stroke-linejoin:round;stroke-opacity:1" /><path
   d="m 4531797.2,8944495.3 231994.1,2175945.7 705222.8,-923037"
   id="_x32_1314672"
   style="fill:none;stroke:#c09300;stroke-width:113549.4609375;stroke-linecap:round;stroke-linejoin:round;stroke-opacity:1" /><path
   d="m 5186969.1,10556327 385215,1329499"
   id="_x32_1314760"
   style="fill:none;stroke:#c09300;stroke-width:113549.4609375;stroke-linecap:round;stroke-linejoin:round;stroke-opacity:1" /><path
   d="m 5723064.2,11396990 -779157.8,1183418 m 243008.2,1181199 -249380.1,-1179609 -217687.4,-1199734 -522014.8,706886 -228924,-815032 -730629.2,749395 371584.6,1363096 512798,-843261 282045.9,859118 526454.9,-818877"
   id="_x32_1314936"
   style="fill:none;stroke:#c09300;stroke-width:113564;stroke-linecap:round;stroke-linejoin:round;stroke-miterlimit:4;stroke-opacity:1;stroke-dasharray:none" /><path
   d="m 3122500,14043610 473666.5,-665295 308596,1024000 423122.4,-717900 282208.4,859227"
   id="_x32_1315024"
   style="fill:none;stroke:#c09300;stroke-width:113549.4609375;stroke-linecap:round;stroke-linejoin:round;stroke-opacity:1" /><use
   transform="matrix(-1,0,0,1,12521512,0)"
   id="use4082"
   x="0"
   y="0"
   width="218"
   height="300"
   xlink:href="#_x32_1315024" /><path
   d="m 3827831.7,14184502 c 576875.9,76974 1218060,141002 1718275.7,76974 281827.7,0 487051.1,487141 -77094.3,564224 -499890.4,63918 -1282152,0 -1705328,-77083 -359031.2,-64136 -1141130.1,-205083 -1641345.8,-346357 -500054.1,-217758 -140859.4,-640653 140967.4,-576680 436070.9,140947 1000324.4,282111 1564524.1,358922 z"
   id="_x32_1315816"
   style="fill:#ffffff;fill-opacity:1;stroke:#c09300;stroke-width:113549.4609375;stroke-linecap:round;stroke-linejoin:round;stroke-opacity:1" /><path
   d="m 8674720.4,14184502 c -577094.5,76974 -1218007,141002 -1705383.6,76974 -294994.2,0 -500162.2,487141 64092.6,564224 500107.5,63918 1282259,0 1705163.1,-77083 359195,-64136 1141292.9,-205083 1641292.5,-346357 500215,-217758 141240,-640653 -140968,-576680 -435961.6,140947 -1000107.6,282111 -1564197.2,358922 z"
   id="_x32_1315904"
   style="fill:#ffffff;fill-opacity:1;stroke:#c09300;stroke-width:113549.4609375;stroke-linecap:round;stroke-linejoin:round;stroke-opacity:1" /><path
   d="m 2058170.8,13902608 c -435897.4,-76974 -641034.3,422896 -499869.7,704898 64026.8,-141001 358976.6,-141001 423167,-282002 76702.7,-217813 -64190.4,-217813 76702.7,-422896 z"
   id="_x32_1315992"
   style="fill:#ffffff;fill-opacity:1;stroke:#c09300;stroke-width:113540.953125;stroke-linecap:round;stroke-linejoin:round;stroke-opacity:1" /><path
   d="m 3763631.5,15213725 c 0,-281785 281935.9,-247134 281935.9,-529244 0,-140947 -76768.1,-359032 -217790.2,-359032 -141077.4,0 -282208.4,141002 -282208.4,282003 -64145.8,282166 218062.7,324543 218062.7,606273 z"
   id="_x32_1316168"
   style="fill:#ffffff;fill-opacity:1;stroke:#c09300;stroke-width:113549.4609375;stroke-linecap:round;stroke-linejoin:round;stroke-opacity:1" /><path
   d="m 5793386.5,14402260 c 422796.5,0 380903.9,564331 175680,846389 0,-205137 -358975.9,-282058 -358975.9,-422895 0,-218248 324100.8,-218248 183295.9,-423494 z"
   id="_x32_1316256"
   style="fill:#ffffff;fill-opacity:1;stroke:#c09300;stroke-width:113549.4609375;stroke-linecap:round;stroke-linejoin:round;stroke-opacity:1" /><path
   d="m 10444219,13902608 c 435951,-76974 641197,422896 500087,704898 -64190,-141001 -359030,-141001 -423112,-282002 -76975,-217813 64136,-217813 -76975,-422896 z"
   id="_x32_1316344"
   style="fill:#ffffff;fill-opacity:1;stroke:#c09300;stroke-width:113540.953125;stroke-linecap:round;stroke-linejoin:round;stroke-opacity:1" /><path
   d="m 8738592.5,15213725 c 0,-281785 -281826.9,-247134 -281826.9,-529244 0,-140947 76821.7,-359032 217899.5,-359032 140968.5,0 282099.2,141002 282099.2,282003 64146.1,282166 -218171.8,324543 -218171.8,606273 z"
   id="_x32_1316520"
   style="fill:#ffffff;fill-opacity:1;stroke:#c09300;stroke-width:113549.4609375;stroke-linecap:round;stroke-linejoin:round;stroke-opacity:1" /><path
   d="m 6709109.5,14402260 c -422958.9,0 -381011,564331 -175842.4,846389 0,-205137 358921,-282058 358921,-422895 54.7,-218248 -324100.6,-218248 -183078.6,-423494 z"
   id="_x32_1316608"
   style="fill:#ffffff;fill-opacity:1;stroke:#c09300;stroke-width:113549.4609375;stroke-linecap:round;stroke-linejoin:round;stroke-opacity:1" /><path
   d="m 2199335.4,14043610 c 141218.2,0 359086.5,64135 423221.4,140946 l -423221.4,-140946 z"
   id="_x32_1316696"
   style="fill:none;stroke:#c09300;stroke-width:79683.2109375;stroke-linecap:round;stroke-linejoin:round;stroke-opacity:1" /><path
   d="m 2904506.3,14261476 c 77029,0 359140.2,64028 500141.3,140784 l -500141.3,-140784 z"
   id="_x32_1316872"
   style="fill:none;stroke:#c09300;stroke-width:79683.2109375;stroke-linecap:round;stroke-linejoin:round;stroke-opacity:1" /><path
   d="m 5469024.1,14543588 c -141002.1,0 -423113.3,0 -499869.7,63918 l 499869.7,-63918 z"
   id="_x32_1317048"
   style="fill:none;stroke:#c09300;stroke-width:79683.2109375;stroke-linecap:round;stroke-linejoin:round;stroke-opacity:1" /><path
   d="m 4686825.2,14543588 c -76756.4,-77083 -358978.5,-77083 -499924.2,0 h 499924.2 z"
   id="_x32_1317224"
   style="fill:none;stroke:#c09300;stroke-width:79683.2109375;stroke-linecap:round;stroke-linejoin:round;stroke-opacity:1" /><path
   d="m 10303218,14043610 c -141003,0 -346301.9,64135 -423222.7,140946 l 423222.7,-140946 z"
   id="_x32_1317312"
   style="fill:#ffffff;stroke:#c09300;stroke-width:79683.2109375;stroke-linecap:round;stroke-linejoin:round;stroke-opacity:1" /><path
   d="m 9597993.4,14261476 c -76865.5,0 -359031.4,64028 -500086.8,140784 l 500086.8,-140784 z"
   id="_x32_1317488"
   style="fill:#ffffff;stroke:#c09300;stroke-width:79683.2109375;stroke-linecap:round;stroke-linejoin:round;stroke-opacity:1" /><path
   d="m 7033476.6,14543588 c 141163.5,0 423220.1,0 500086.8,63918 l -500086.8,-63918 z"
   id="_x32_1317664"
   style="fill:#ffffff;stroke:#c09300;stroke-width:79683.2109375;stroke-linecap:round;stroke-linejoin:round;stroke-opacity:1" /><path
   d="m 7815620,14543588 c 76866,-77083 359140.2,-77083 500087.4,0 H 7815620 z"
   id="_x32_1317840"
   style="fill:#ffffff;stroke:#c09300;stroke-width:79683.2109375;stroke-linecap:round;stroke-linejoin:round;stroke-opacity:1" /><use
   transform="matrix(-1,0,0,1,12516126,0)"
   id="use4090"
   x="0"
   y="0"
   width="218"
   height="300"
   xlink:href="#_x32_1314672" /><path
   d="m 6249410.1,10938497 c 2917468.9,-2243915.1 2667288,-5530867.8 2667288,-5530867.8 -76980.1,15393.7 -150111.2,23090.6 -227090.6,23090.6 -611968.4,0 -2071581.2,-350098.5 -2412074.1,-794786.2 -364767.8,402497.1 -1856351.7,794786.2 -2464482.4,794786.2 -76979.5,0 -153948.8,-7696.9 -227080.2,-23090.6 0,0 -254029.5,3286952.7 2663439.3,5530867.8 z"
   id="_66795168"
   style="fill:#ffffff;fill-opacity:1;stroke:#c09300;stroke-width:102800.4609375;stroke-miterlimit:4;stroke-opacity:1;stroke-dasharray:none" /><path
   d="m 8684470.9,5648451.8 c -25111.9,1571.4 -50345.7,2360 -75764.4,2360 -554628.6,0 -1842897.4,-284562.1 -2339442.6,-711191.4 -520126.5,394105.9 -1829616.6,711191.4 -2375273,711191.4 -25592.5,0 -50877.5,-3131.2 -75938.4,-7727.3 -1267.5,124304.5 5195.2,253152.1 12912.6,370341.8 28868.8,438021.5 105695,877594.1 222333.4,1300569.1 367166.7,1331265.4 1118680.9,2462604 2196191.6,3320813.6 1078440.7,-858914.2 1830761,-1991303.8 2198764.2,-3323518.9 116822.4,-422923.7 193894,-862455.5 223037.9,-1300457.4 7626,-114800.4 14046.7,-240585.3 13178.7,-362379.1 z"
   id="path3977"
   style="fill:#ffffff;stroke:none" /><g
   transform="matrix(1.0208151,0,0,1.0208151,-128745.88,-184679.52)"
   clip-path="url(#id0-0)"
   id="g161"><g
     id="g163"><g
       id="g165"><rect
         width="7117437"
         height="2063968.2"
         x="-11376299"
         y="3255546"
         transform="matrix(0,-1,1,0,0,0)"
         id="_43809040"
         style="fill:#ce1126" /><rect
         width="7117437"
         height="2173685.8"
         x="-11376299"
         y="7124192"
         transform="matrix(0,-1,1,0,0,0)"
         id="_43612568"
         style="fill:#000000" /></g></g></g><use
   transform="matrix(-1,0,0,1,12474420,0)"
   id="use4086"
   x="0"
   y="0"
   width="218"
   height="300"
   xlink:href="#_x32_1314760" /><path
   d="m 2080552,15170413 c -47732.6,-9123 -72798.7,-46886 -60786,-91573 14632.3,-54431 58238.8,-85569 99437.1,-71003 26198,9261 74158,57620 74347.1,74964 224.5,19908 -25078.3,67262 -35988.2,67371 -4707.2,47 -11995.1,4156 -16197.4,9117 -8938.1,10561 -36948.7,15685 -60812.6,11124 z m 4909144.6,350621 c -17758.2,-6573 -46047.8,-46342 -46015.6,-64688 172.7,-34604 51318.5,-90967 83013.9,-91285 15655.5,-115 58519.2,22175 74549.9,38845 29051.3,30200 22718.6,79794 -13784.2,107958 -17961.3,13858 -71524,18881 -97764,9170 z m 32481.1,221647 c -37553.8,-12699 -51291.4,-31081 -54343.8,-72717 -3171.5,-43383 1036.1,-50137 46880.7,-75133 l 32672.8,-17814 30965.1,13809 c 42890.7,19124 61972.1,39739 63485.3,68589 1623.2,31075 -21423.5,62872 -57211.4,78911 -31427.2,14084 -33295.6,14214 -62448.7,4363 z m -4849555.5,-274014 c 22976.9,-19830 23426.7,-40070 1105.7,-49566 -14093.5,-5997 -22345,-4576 -50151.3,8686 -27982.1,13335 -32992.5,18420 -31458.7,31931 1737.7,15329 13734.6,20541 55537,24131 3690.1,288 14927,-6517 24970.8,-15182 z m 753577.1,393475 c -20238.4,-6830 -70140.5,-18828 -110893.1,-26659 -93957.8,-18058 -239669.7,-50918 -279073.1,-62932 -16646,-5082 -46895.8,-12923 -67221.9,-17437 -37325.9,-8288 -56502.8,-13906 -117681.4,-34469 -18502,-6220 -63884.7,-18743 -100851.4,-27831 -36966.6,-9088 -80171.5,-21891 -96009.8,-28452 -15839.1,-6560 -34577.2,-11869 -41640.3,-11798 -7063.6,52 -22877.4,-5238 -35141,-11804 -12264.5,-6563 -41689.7,-13707 -65389.5,-15875 -49521.9,-4518 -86422.8,-21951 -107410.8,-50706 -17822.1,-24417 -18256.6,-43482 -1760.7,-77168 6968.3,-14227 12716.3,-30965 12773.4,-37194 63.3,-6230 6080.2,-16345 13388.3,-22478 7306.4,-6134 13254,-13974 13216.4,-17421 -69,-7572 31083.5,-52790 49490.6,-71807 24150,-24949 74134.2,-49011 102400.2,-49295 16609.6,-288 31220.3,-4605 38393.3,-11647 7970.7,-7833 26158.4,-12528 58350,-15067 l 46768.9,-3695 18252.8,-32360 c 10039.5,-17797 18377.2,-41047 18529.5,-51666 172.6,-10621 4885,-28019 10520.7,-38663 5632.1,-10645 14283.1,-36794 19218.5,-58109 18679.8,-80678 32199.8,-125512 40213.3,-133356 11675.6,-11430 10520.3,-16374 -9623.8,-41184 -10900.5,-13427 -23587.3,-21857 -32752.7,-21765 -22360.8,288 -59015.2,13507 -70542.6,25566 -22979.2,24035 -53368.2,40030 -76490.1,40263 -31843.7,288 -72767.5,-22444 -88017.4,-48960 -11986.1,-20840 -11939.3,-22026 2008.2,-50340 9092.2,-18453 20960.5,-31547 32650.2,-36015 27771.7,-10614 98715.4,-5278 115097.4,8658 11605.2,9872 20225.5,10876 57358.7,6681 24036.1,-2734 45178.8,-7288 46984.1,-10159 1805.7,-2889 16604.4,-7275 32886,-9787 16281.7,-2516 31175.6,-8628 33097.7,-13591 1926.5,-4979 14081,-11041 27020.3,-13506 12939.5,-2457 26974.6,-8558 31189.5,-13539 4219,-4973 16265.6,-9144 26778.4,-9249 14750.5,-53 21715.2,4512 30502.7,20417 10044.2,18178 10433.6,25576 3302.7,62709 -4448.2,23155 -13593.2,52899 -20324.6,66100 -6731.3,13199 -12115.7,35252 -11965.5,49007 166.9,15775 -4620.3,30540 -12970.3,39983 -7283.3,8236 -13171.2,21562 -13083.2,29615 97.8,8052 -4450.5,19164 -10089.6,24690 -5640.8,5531 -13373,28252 -17189.9,50505 -3818.5,22250 -10633,46285 -15144.8,53410 -4514.9,7123 -10039.2,26488 -12282.6,43033 -2243,16546 -8416.6,33614 -13719.1,37930 -5300.6,4323 -9540.5,17012 -9418.3,28218 132.4,11204 -5287.4,31014 -12013.4,44020 -6729.2,13005 -14167,39032 -16527.6,57834 -2358.8,18802 -8130.6,40016 -12821.3,47141 -4692.2,7127 -10556.7,27456 -13035.4,45178 -2480.2,17721 -8857.8,38875 -14176.4,47009 -8718.8,13335 -8330.7,16555 3950.3,32749 19875.1,26210 78100.3,45046 137402.7,44450 46143.7,-288 48660.6,-1290 65195.9,-21628 9985.4,-12276 19061.5,-33976 21637.7,-51734 2442.8,-16823 8668.5,-38579 13840.7,-48344 5172.8,-9767 9243.1,-34197 9046.4,-54287 -328.1,-34036 -1996.8,-37800 -24332.9,-55102 -22174.5,-17177 -23383.3,-19857 -16081.4,-35681 7488.2,-16224 37960.6,-30189 66716.6,-30574 5952,-52 17958.7,-5606 26678.8,-12288 8719.3,-6680 22377.9,-14179 30351.7,-16665 7973.4,-2481 25900.1,-14760 39836.6,-27273 29287.7,-26300 47367.4,-26916 62176.2,-2130 9235.6,15467 9139.5,20306 -955,48273 -6173.9,17096 -11069.9,43885 -10881,59530 184.2,15647 -3794.8,33063 -8852.9,38701 -5060.6,5641 -12181.3,23313 -15828,39277 -3649.8,15964 -11122.1,40652 -16611.9,54864 -5490.6,14214 -9984.8,37538 -9990.8,51831 22.7,14294 -5918.1,37409 -13139.8,51365 -18984.8,36694 -16590.2,59093 7462.1,69825 5557.4,2464 17690,8620 26961.6,13644 9271.5,5025 28922.9,9120 43669.9,9101 14747.3,116 39876.3,5503 55843.4,12266 15967.2,6764 48110.8,13981 71431.1,16038 41530.3,3661 42787,3310 61321.7,-17082 11603.8,-12770 22115.1,-34967 27177.8,-57391 4543.1,-20113 9951.6,-43060 12025,-50995 6419.1,-24552 -4251.9,-56800 -25172.1,-76096 -36785.3,-33933 -21503.4,-79576 26805.1,-80064 20823,-288 77420.4,-22831 92326.3,-36903 40370.1,-38112 65556.2,-48104 90169.4,-35775 19486.8,9762 25773.3,36426 13633.2,57835 -5046.8,8899 -13251.4,33598 -18233.3,54885 -4978.3,21286 -15032.8,59255 -22335.3,84375 -7303.3,25121 -17914.4,68666 -23580.3,96765 -5665.6,28099 -15920.1,68275 -22785.3,89281 -6865.8,21004 -12422.8,43690 -12349.6,50412 63.3,6722 -6177.5,26719 -13888.2,44436 -22475.4,51641 -55783.9,61732 -125773.3,38107 z m -864878.1,3316 c -44327.9,-41674 -37199.9,-72075 28357.9,-120946 28049.9,-20908 45065,-18543 77140.9,10722 49369.2,45040 51344.8,73553 7767.4,112149 -21540.2,19077 -30964.5,22989 -56036.4,23239 -26228.8,288 -33658.8,-2987 -57232.5,-25164 z m 272411.2,82807 c -43336.2,-10685 -68319.6,-54329 -55640.1,-97202 11486.6,-38842 18129.8,-42665 75099.9,-43239 63884,-644 76284.6,10050 76898.2,66304 328,31668 -2099.8,39015 -17848.7,53663 -18510.2,17215 -54090.8,26495 -78509.3,20474 z m 7964062.6,6952 c -20289,-16887 -24375,-24520 -24607,-46010 -288,-36702 20868,-63611 66679,-84356 60940,-27601 85785,-23806 108738,16602 30529,53741 29058,75680 -7501,111898 -20179,19990 -23957,21155 -70154,21620 -45364,288 -50553,-938 -73155,-19754 z m -7602178.8,102695 c -32522.8,-8681 -49380.3,-33084 -49805.9,-72105 -328.1,-29836 1792.4,-34594 22667.3,-50931 13515.5,-10577 34873.2,-19637 51709.9,-21934 23854.4,-3258 32570.6,-1180 51763.5,12312 49204.1,34587 59655.7,68795 31165.9,101999 -30346.6,35368 -59115.2,43574 -107500.7,30659 z m 1958922.6,87835 -25059.2,-21579 3405.2,-53817 c 1875.3,-29597 7830.1,-65441 13233.3,-79653 5401.4,-14212 9728.1,-46730 9610.7,-72267 -143.9,-25535 4018.2,-58878 9183.2,-74097 5166.5,-15218 13713,-71977 18990,-126130 5280.5,-54153 12415.4,-105815 15862.9,-114801 3444.3,-8989 6090.7,-32812 5871,-52942 -224.4,-20128 5032.4,-55586 11672.8,-78792 7685.5,-26862 12021.2,-64306 11933.1,-103062 -97.9,-33479 2925.1,-71016 6667.4,-83418 3741.3,-12402 6731.7,-29359 6641,-37684 -167,-15850 22892.5,-52748 33036.6,-52850 3238.2,-32 16842,15430 30230.2,34360 13387.8,18930 40272.7,49131 59743.2,67114 85897.2,79333 82077.9,72384 54187.2,98580 -10235.7,9613 -21650.5,17509 -25367.1,17548 -3713.2,37 -14773.8,8271 -24570.9,18295 -14763.3,15106 -17797.8,24228 -17725.2,53269 57.5,19272 -4539.7,46670 -10187.9,60883 -9312.7,23423 -18866,110366 -22297.7,202932 -719.4,19472 -4122.9,39779 -7564.5,45122 -3437.5,5342 -7540.2,51846 -9111.9,103340 -1575.4,51492 -5639.7,97867 -9031.3,103054 -3392.5,5186 -6389.6,21014 -6652.2,35174 -980.2,52381 -12479,99775 -28189.5,116170 -12328,12865 -22077,16255 -47483.7,16511 -26999.2,288 -35867.2,-3050 -57029.8,-21260 z m 2596570.2,-59317 34957.9,-10349 -2377.1,-33415 -2371.5,-33415 -27904.6,-1675 c -23345.4,-1410 -30743.4,1324 -45276.5,16542 -25780.7,27033 -28692.1,46527 -9066.1,60702 8890.5,6422 16375.5,11740 16627,11816 287.8,53 16192.5,-4519 35419,-10211 z m -203609.9,138864 c -14053.6,-19380 -14670.1,-23832 -8210.8,-59399 3833.4,-21148 7362.9,-57276 7829.2,-80285 345.3,-23011 4339.9,-48198 8627.5,-55972 4282.4,-7773 7674.3,-23871 7544.8,-35771 -287.8,-16767 5738.7,-27359 26299.9,-47040 14593.5,-13972 26500.2,-28539 26458.8,-32371 -54.7,-8374 52261.8,-48860 63325.3,-48971 4288.1,-43 13193.1,-5925 19788.8,-13069 6593.4,-7146 20101.9,-13073 30015.9,-13172 9915.1,-53 25963.1,-6868 35664.7,-15042 16571.8,-13965 17602.1,-18241 17027.7,-70733 -287.8,-33737 -4881,-67564 -11405.9,-85384 -5942.4,-16231 -10150.5,-35836 -9360.8,-43567 759.7,-7732 -1243.3,-44436 -4501.2,-81566 -5289.6,-60142 -7842.4,-69423 -23458.1,-85031 -9641.2,-9637 -21283.1,-17482 -25872.3,-17436 -8408.2,53 -40005.2,-36785 -35578.4,-41513 46170.5,-49330 128404.5,-126894 137616.2,-129804 18884,-5963 47280.8,6825 54526.9,24553 3574.4,8719 8563,47092 11111.8,85269 2555.6,38178 7729.6,86759 11512.3,107958 3787.4,21196 10413.6,87734 14735.7,147858 4328.5,60127 10853.4,119426 14513,131775 3649.2,12352 9093.1,67317 12070.1,122147 2975.8,54829 8477.3,110871 12219.8,124536 12866.2,46979 66781.7,75141 105139.6,54918 6364.9,-3350 35043.1,-9867 63731.1,-14470 66734.6,-10709 67914.5,-12760 61995.2,-107872 -4115.5,-65982 -6266.5,-75160 -22380.7,-95002 -9807.5,-12082 -25338.1,-23693 -34507.2,-25806 -18395.9,-4237 -29902.5,-19809 -30131.6,-40775 -55.3,-14834 34487.6,-49486 56219,-56226 7427.5,-2279 27373.4,-15519 44325.1,-29368 37931.4,-30997 62896.5,-33320 86441.6,-8047 15093.7,16202 16747.4,24612 21783.8,110788 3891,66606 8584.4,98740 16414.7,112451 7985.7,13974 11172.2,36914 11719,84360 287.8,44414 4167.3,72787 11473.8,89093 9452.4,21096 9598,26326 1243.3,44210 -5214.8,11159 -11422,26672 -13777.9,34479 -5450.8,18062 -15585.8,21030 -77242.5,22627 -27642.7,771 -62289.2,4650 -76991.6,8713 -14703.4,4087 -53872.9,8084 -87043.6,8907 -141546.4,3517 -334884.3,19849 -345423.4,29190 -7852.2,6960 -30529.9,9481 -90383.2,10050 l -79901.2,829 -15193.9,-20949 z m -3018805.7,-531225 c 17701.8,-12171 19121.7,-28806 2811.7,-32891 -20665.5,-5180 -37407.9,-33755 -38839,-66296 -2568.8,-58480 -29962.5,-61823 -80895.5,-9869 -14671.6,14962 -37044,35128 -49715.6,44809 l -23041.1,17600 16754.3,16886 c 28026.2,28242 59369.1,39449 111032.6,39699 32765.9,173 51611.2,-2867 61895.7,-9938 z m 207864.4,637455 c -10175.6,-3425 -18524.7,-8372 -18553.6,-11020 -57.6,-6117 -63582,-44954 -73356.9,-44856 -4019.9,42 -9081.4,-7872 -11242.4,-17583 -2160.2,-9711 -10231.7,-36673 -17938,-59915 -13494,-40698 -13291,-71927 523.8,-80317 10015.7,-6080 6335,-26015 -6882.5,-37257 -8058.1,-6855 -29117.6,-11757 -58802.3,-13688 -63012.7,-4104 -70238.8,-6018 -92412.9,-24537 -15848.6,-13237 -20343.1,-23607 -25181.9,-58105 -3451.3,-24615 -10780.7,-47071 -17706.4,-54265 -12288.5,-12763 -33161.5,-16159 -39303.2,-6393 -1953.5,3114 -12687.8,7489 -23860.7,9754 -13634,2757 -22424.9,9615 -26732.9,20844 -3532.4,9203 -14204.5,26748 -23720.7,38990 -16538.3,21273 -19201.3,22276 -60288,22689 -23642.1,288 -53042.2,-3476 -65333.5,-8270 -26374.5,-10270 -55489,-14741 -128352.9,-19710 -104470.9,-7127 -152821.8,726 -160890.5,26008 -11182,35095 -95617.1,107321 -132472.9,113321 -14751.4,2417 -39818.2,8619 -55703.1,13818 -15884.9,5203 -31795.8,7764 -35357.8,5698 -3560,-2072 -38842.9,-7738 -78403.6,-12610 -74708.8,-9202 -102232.5,-21756 -102505.1,-46747 -167,-15186 45711.8,-38251 63332.8,-31841 19005.4,6912 50345.5,6570 50267.1,-651 -35.9,-3287 16256,-9401 36204.4,-13587 19948.2,-4179 39840.2,-11830 44205.6,-16989 4365.3,-5146 16682.6,-9466 27371.5,-9574 15851.5,-115 23053,-5799 39064.2,-30611 10796.7,-16729 19585.9,-34457 19531.9,-39401 -53.8,-4944 5855,-16409 13128.4,-25480 7870.3,-9817 13120.2,-26239 12964,-40556 -143.9,-13234 4258.8,-36777 9781.5,-52321 9462.2,-26621 9152.6,-30862 -5342.6,-73150 -8461.6,-24691 -19170.4,-47048 -23797.7,-49683 -4627.8,-2642 -12030.6,-14955 -16451.1,-27375 -11670.2,-32790 895.1,-62116 48362.3,-112860 5016.9,-5359 11124.9,-19201 13580.4,-30758 4638.1,-21825 19667.4,-33929 42415.1,-34158 16726,-287 48335.7,34525 48540.2,53272 92.1,7789 5047.9,20721 11025.2,28736 6579,8821 13374.1,37886 17213.2,73653 6564.4,61124 17347.6,123967 25401.4,147996 6869.5,20497 43413.5,48781 63109.4,48844 9475.2,115 35369.8,4070 57543.6,8974 22173.9,4898 57734.1,8787 79023.4,8629 38588.9,-288 38828.9,-288 78325.9,-39983 21790.3,-21830 39487.4,-43003 39325.5,-47050 -1029.7,-25737 -87324.7,-72128 -156793.8,-84288 -24314.2,-4253 -41373.1,-33953 -36064.6,-62783 4502.3,-24449 36914,-66938 68469.6,-89756 12060.2,-8721 52110.9,-24277 89002.1,-34568 l 67074,-18713 18544.5,-36206 c 35304.7,-68926 109603.9,-123460 169023.4,-124057 29665.5,-288 35945.1,3143 59669.9,32667 6572.1,8183 18940.6,23494 27482.4,34025 26321.2,32456 41178.8,70831 37194.5,96070 -3727.5,23614 6354,61154 16391.2,61054 9215.8,-54 106966.5,95034 111624.9,108630 2354.8,6859 6945,12445 10209.9,12413 8293.5,-54 20358.9,42943 20742.2,73971 564,46031 -9705.1,52877 -81256.9,54148 -34221.5,593 -75751.6,5146 -92287.7,10063 l -30066.5,8958 -1591.5,35694 c -2153.3,48322 9987.3,61778 62567.5,69357 21883.4,3149 42907.4,8668 46721.3,12253 3815.5,3597 14801.7,6438 24418.6,6342 9617.1,-53 23385.4,3914 30596.3,8863 11795.8,8133 13200.6,17311 14010.6,91557 l 897.4,82519 21861.2,6545 c 12024.5,3598 25517.5,9980 29983.6,14180 15864.9,14914 36855.7,8587 45291.6,-13653 4376.8,-11547 10499.8,-26810 13598.4,-33921 3099.5,-7109 8398.6,-50600 11775.9,-96645 3377,-46046 10275.2,-95343 15328.2,-109552 5054.8,-14208 12163.1,-60452 15799.5,-102765 3634.2,-42312 9972.1,-80904 14080.2,-85758 4177.7,-4933 8791.5,-45283 10470.2,-91503 2403.1,-66076 5328.9,-85198 14594.8,-95223 9741.8,-10537 11443.9,-25313 10656.3,-92465 l -933.6,-79903 -26924.1,-22252 c -17940.9,-14828 -26969.8,-27620 -27062.3,-38338 -189.9,-23245 6095.2,-29957 39664.7,-42284 16482.3,-6057 41986.6,-15378 56675.5,-20716 14688.9,-5347 29719.5,-13206 33401.4,-17479 11580.8,-13437 48846.8,-37150 58535.8,-37248 5108.3,-51 14336.1,5157 20507.1,11563 14419.4,14977 15735.9,76113 2191.9,101698 -5805.6,10965 -9638.5,35934 -9387.7,61154 253.2,23443 -4158.1,55342 -9755,70886 -5843.7,16216 -13184.3,74918 -17230.3,137729 -3881.2,60207 -10618.4,115829 -14977.5,123603 -4356.7,7775 -7771.1,33872 -7581.5,57994 195.7,24121 -4055.6,68515 -9429.6,98654 -5378.9,30138 -12524.7,80762 -15887.2,112499 -3362.6,31736 -10325.5,67673 -15473.1,79859 -5146.3,12185 -11084.1,42774 -13190.8,67977 -2105.5,25201 -9294.6,55967 -15974.6,68369 -6678.8,12403 -12088.4,27659 -12020.3,33904 172.7,16205 -34469.4,75853 -44180.3,76061 -4482.1,53 -11097.5,5618 -14710.6,12262 -3614.1,6646 -15733.2,13943 -26933.2,16208 -11200,2274 -28569.9,9778 -38599.7,16686 -21493.5,14807 -83926.2,22527 -110391.5,13653 z m 5639795.8,-507100 c 41515,-17902 53237.5,-39849 36990.3,-69251 -13982.3,-25308 -34416.9,-35310 -67691.2,-33130 -38607.7,2533 -70238.1,27897 -69930.8,56088 287.8,18311 4789,24764 28932.7,40653 15780.9,10387 30928.7,19114 33662.2,19393 2728.3,288 19849.3,-5912 38036.8,-13753 z m -535017.1,4858 c 28643.7,-13231 32046,-17055 32085.1,-36057 55.8,-29120 -26477.1,-63533 -65660.5,-85156 -41547.8,-22925 -56477.5,-22521 -74972.4,2044 -14465.1,19200 -14595.8,20788 -4080.9,49450 5981.5,16289 10920.7,33954 10978.8,39259 55.9,12792 40656.3,44977 56831.5,45146 7023.4,115 27186.9,-6531 44810.9,-14669 z m -238325.6,22642 c 2365.7,-11008 2089.4,-36019 -696.4,-55578 -3965.8,-28143 -9265.9,-39203 -25353.1,-53017 -24210.4,-20786 -36746.2,-18839 -65425,10169 -18492.6,18706 -21193.3,26086 -21878.8,59765 -1087.9,52941 6183.6,59712 63411.7,59137 45517.1,-288 45570,-288 49915.2,-20476 z m -532448.8,99570 c 23079.5,-11755 28586.7,-24593 22720.3,-52970 -8864.1,-42881 -62703.7,-55530 -88816.5,-20870 -7952.9,10555 -14430,21849 -14394.3,25099 35.1,3252 -4357.3,9504 -9761.5,13904 -7752.6,6307 -8198.7,10896 -2118.2,21723 4253.7,7550 11057.1,15821 15142.1,18380 12601.4,7894 57372,4847 77221.8,-5266 z m 847307.8,76509 c 18791.3,-14489 20356.3,-34898 3798.9,-49405 -19460.8,-17044 -55091,-16825 -91598.4,638 -21783.8,10375 -27889.6,16851 -27752.1,29445 55.3,10728 5249.4,18045 15321.7,21811 22643.1,8475 88161.5,6896 100237.9,-2429 z m -1039235,310218 c -7696.8,-7235 -5358.7,-38784 3419,-45650 4558.7,-3586 15824.8,-8739 25011.2,-11453 9187.6,-2717 21186.9,-8723 26668.2,-13353 5473.9,-4639 25021,-10643 43423.7,-13357 66141.7,-9755 123801.5,-62222 123975.9,-112811 230.2,-13946 -1968.5,-28499 -4518.4,-32343 -7564.4,-11480 -123370.3,-4513 -186054.4,11192 -14865.2,3741 -22193.7,748 -40396.1,-16336 l -22236.8,-20885 -3177.3,-94677 -3177.2,-94676 28944.7,-31954 c 15918.5,-17575 36080.9,-43442 44805.1,-57483 8723.6,-14040 17819.1,-26376 20209.6,-27414 2394.4,-1047 15972.6,-12219 30178.7,-24846 28035.3,-24917 74277.1,-50274 105473.5,-57837 10805.6,-2613 22822.2,-9029 26708.6,-14244 3868,-5203 15787.3,-10210 26451.8,-11101 16430.8,-1370 22269.6,2769 38260.7,27148 10381.3,15823 19338.7,37451 19906.8,48065 402.9,10611 5565.9,30832 11116.3,44933 5560.3,14102 12184.7,42281 14751.9,62621 2578.6,20342 8051.3,40936 12186.9,45765 10181.7,11895 91270.3,17501 105349.8,7283 7866,-5710 11365,-22976 13471.7,-66500 1634.7,-33672 7191.4,-67381 13018.1,-78896 5594.7,-11058 12124.8,-29565 14508.3,-41128 6523.2,-31652 59402.1,-104741 91028.5,-125822 15364.3,-10242 31689.7,-22088 36272,-26327 4599,-4248 15080.5,-9803 23327.5,-12365 19972.4,-6201 24711.3,-14517 24523.6,-43011 -172.6,-24595 -20551.4,-52787 -62848.1,-86903 -10230,-8250 -18653.7,-20090 -18722.2,-26310 -287.8,-18207 19431.9,-52849 50335.9,-88823 15821.3,-18420 28868.2,-35926 28993.1,-38902 115.1,-2970 10645.5,-11938 23381.1,-19915 18203,-11400 26740.7,-13235 39922.9,-8574 17953.8,6344 22948.2,15231 39521.8,70309 21916.2,72833 27013,94147 32371.8,135345 3044.8,23269 7559.8,45429 10078,49249 2509.5,3816 32138.6,12864 65826.8,20101 33689.3,7236 67703.8,16962 75588.3,21615 7883.8,4668 21839,10541 31011.6,13084 22923.5,6356 54070.4,28800 54181.5,39041 50.7,4645 2613.2,8415 5669.6,8385 7247.2,-52 41025.8,49055 72092.7,104855 34989,62845 32888.1,61404 88702.5,60842 44910.5,-288 50094.2,-1917 62666.8,-17586 7537.4,-9401 13620.8,-24998 13514.9,-34661 -287.8,-20153 16992,-43775 59010.7,-80991 16195.4,-14341 35898.4,-31934 43784,-39092 26027.1,-23625 55593.4,-42387 66970.5,-42502 6158.9,-52 39327.3,11393 73701.5,25454 50793.6,20780 66012.8,30333 81275.7,51011 33183.8,44955 103968.8,63489 139063.8,36411 9296,-7171 20195,-13072 24221,-13113 4018,-42 7274,-4501 7214,-9928 -55,-13581 -27464,-87838 -35806,-97341 -3736,-4270 -9954,-30215 -13808,-57681 -3851,-27467 -13221,-62951 -20806,-78854 -9263,-19420 -15176,-48913 -18006,-89814 -2308,-33496 -10188,-82385 -17490,-108643 -7301,-26260 -13363,-55859 -13473,-65776 -639,-47497 -40814.2,-110025 -81821,-126960 -9259,-3822 -24420,-11051 -33691.6,-16062 -24260,-13114 -56163.3,-11253 -70338.9,4104 -6594.5,7144 -18308.4,13067 -26032.8,13161 -14251.1,53 -57235,34731 -57112.4,45917 36.8,3350 -9843.7,6205 -21956.5,6327 -17952.1,287 -26062.1,-4720 -43860.5,-26469 -12008,-14681 -21898.4,-29784 -21975.5,-33564 -56.4,-3782 -12257.2,-16886 -27063.7,-29126 -21947.8,-18137 -26983.7,-26521 -27242.7,-45348 -287.8,-18422 3067.9,-24611 16359.4,-30592 9170.9,-4122 16644.4,-10325 16607,-13779 -37.4,-3453 11222.3,-8268 25019.7,-10694 13798.7,-2411 49152.6,-10635 78563.5,-18241 74048.6,-19150 207281.1,-20248 239717.9,-1986 12000.1,6760 29542.1,13945 38984.1,15968 21965,4703 80076,58357 91987,84921 5031,11210 11956,22017 15400,24012 3448,2009 8478,15897 11187,30893 2711,14999 9047,35913 14085,46480 7532,15803 17605,81977 27872,183122 1836,18104 15391,80075 25979,118788 3879,14120 11441,46905 16844,72856 5399,25953 14602,52152 20444,58219 5841,6066 10674,16156 10743,22420 288,25099 69630,67335 109910,66930 35144,-288 87711,-24049 120626,-54378 18719,-17247 41234,-33179 50033,-35404 18098,-4594 47504,9307 57992,27377 12760,21984 33888,41424 61960,57008 30254,16795 41244,39053 29735,60226 -3833,7043 -12132,12889 -18454,12987 -6318,54 -27548,7551 -47171,16561 -19623,9011 -41282,16439 -48130,16509 -6850,54 -44894,10589 -84545,23375 -39652,12789 -109713,31036 -155693,40552 -81328,16828 -190404,47071 -203831,56514 -3643,2567 -18695,6781 -33415,9349 -45601,7955 -49504,10408 -53812,33798 -5324,28857 -66718.1,93046 -112119,117205 -31464,16743 -37953.8,17729 -116307.8,17664 -45639.7,-230 -88432.6,-1669 -95091,-3626 -6663.6,-1951 -14152.6,-12053 -16647.2,-22438 -2503.9,-10428 -13613.3,-24948 -24817.2,-32439 -21361.9,-14279 -45774.4,-13866 -100440.5,1710 l -24349.2,6933 -4029.2,63528 c -2227.5,34939 -8058.8,70420 -12974.4,78847 -4904,8427 -11807,21143 -15324.5,28255 -3528.3,7115 -21768.2,26122 -40559,42237 -18791.3,16117 -46126.6,40281 -60747.2,53700 -30194.9,27719 -56202.4,31919 -74338.7,12010 -6679.7,-7331 -19913.1,-12670 -31125.6,-12558 -22503.9,288 -74617.8,-21148 -107412.7,-44054 -20128.9,-14058 -62282.9,-82850 -62491.8,-101977 -39.2,-3678 -6170.9,-12434 -13617.9,-19438 -10737.6,-10094 -22226.4,-12588 -55432.2,-12032 -23037.5,345 -55428.3,3707 -71979.4,7372 -16551.1,3655 -56861.4,9867 -89581.4,13773 -32720.6,3891 -69146.8,11087 -80947,15960 -11800.2,4875 -34264.9,11071 -49917,13772 -41147.2,7101 -53668,22196 -53211,64145 287.8,22219 -3044.9,37380 -9160.5,42365 -5249.4,4288 -11313.2,15921 -13479.2,25891 -5640.8,25960 -60494,79207 -99568.5,96660 -18345.2,8194 -44446.5,20689 -58002.8,27767 -20323.6,10613 -38040.2,13006 -100957.5,13639 -41970.3,288 -78340.7,-1140 -80823.8,-3465 z m -531837.5,57865 -15319.3,-10359 13441.1,-18530 c 7392.9,-10191 24662.4,-22190 38375.8,-26666 46730.5,-15251 78236,-34357 116423.5,-70599 20981.5,-19915 38093.8,-41143 38028.2,-47175 -55.3,-6033 8070.9,-20524 18082.7,-32205 17449,-20358 18146.7,-24046 16843.5,-89145 -1346.9,-66461 -4823.4,-80410 -29654.4,-118833 -11835.9,-18310 -51803.7,-47274 -92599.9,-67112 -27043.5,-13150 -36738.7,-39908 -22737.5,-62752 5846.8,-9551 24387.8,-45015 41189.8,-78807 16800.9,-33793 34165.9,-68717 38584.7,-77610 12096.6,-24338 42124,-25665 62380.2,-2763 19148.2,21655 50110.9,76364 50247.3,88776 53.6,4869 5895.2,13993 12987.1,20254 15322.2,13529 48327.7,70208 48471,83234 54.7,5031 8052.6,21874 17770.8,37422 12074.2,19311 17876.7,37960 18319.9,58876 460.5,16836 5209.1,41405 10752.1,54595 16164.3,38359 10966.7,166854 -8201.6,202838 -8054.9,15123 -16845.8,27587 -19536.2,27697 -2688,53 -13808.4,12045 -24710.1,26522 -20794.3,27609 -91772.1,77460 -110558.2,77649 -6035.7,53 -15399.9,6673 -20818,14690 -9235.3,13663 -15265.2,14758 -96148.9,17464 -71505.6,2406 -88920.1,1134 -101613.6,-7469 z m -611879.1,39975 c -21690,-22307 -26384,-31767 -26623.4,-53655 -287.8,-22118 3988.8,-30895 25222.4,-52347 39172.9,-39571 58315.9,-40527 125944.3,-6304 64622.2,32710 86471.6,35672 92258,12514 5589,-22364 42797.4,-42826 78146.2,-42972 22349.6,-173 34997,4265 52895.6,18204 22466.4,17503 23550.3,20230 24122.4,60718 345.4,41381 -172.7,42950 -25956.8,65773 -24778,21816 -28764.6,23162 -59472.3,20089 -39073.4,-3925 -62522.4,-21815 -68885,-52593 -4610.4,-22345 -12460.9,-27680 -18343.5,-12486 -1870.6,4875 -11496.8,10890 -21354.9,13371 -18190.4,4593 -49050.1,24008 -70978.4,44693 -8286.8,7815 -22814.7,11490 -46354,11728 -31784.7,288 -36209.3,-1640 -60620.6,-26737 z m -563900.9,-348129 c 14806,-5589 17979.8,-10020 14734.6,-20577 -2267.8,-7399 -7496.5,-27173 -11603.3,-43944 -6429.4,-26251 -9758.6,-30469 -23938.8,-30326 -15313.1,53 -43735.1,16205 -69606.8,39310 -12809.2,11439 -20710.3,39291 -13794.6,48634 15246.3,20599 60060.6,23565 104208.9,6903 z m -517608.3,194531 c 14877.3,-11231 15220.9,-14346 14621.1,-132480 l -621.6,-120978 -18089.7,-15767 c -17325.2,-15101 -23539.3,-15981 -147004.6,-20810 -70905.9,-2786 -140554,-8681 -154774.6,-13128 -18642.2,-5830 -35313.6,-6336 -59753.2,-1813 -22062.9,4086 -48361.7,3988 -75330.9,-288 -100254.7,-15725 -166971.9,-3183 -191147.9,35878 -11399.8,18429 -11429.7,20506 -535.3,37789 6340.5,10057 19109.1,19588 28380.4,21180 9271.3,1583 30881.1,7047 48021.8,12123 19000.8,5630 59591.4,9154 103998.2,9036 40058.3,-29 107545.1,1986 149971.3,4657 42426.8,2670 101411.5,5450 131075.2,6188 38655.5,979 59343.3,4668 73017.1,13074 l 19079.6,11731 -3919.7,62225 c -3747.1,59622 -3246.4,62782 11739.7,75563 18032.1,15368 39623.7,27314 49321.8,27292 3683.8,-36 13560.9,-5180 21940.3,-11515 z m -56684.7,206013 c -34,-3120 -16777.4,-13323 -37209.1,-22665 -39499.3,-18065 -73376.8,-45448 -94035.4,-76016 -14413.9,-21325 -31333.4,-75392 -31733.4,-101412 -54.7,-12871 -4311.2,-18459 -15391.9,-20891 -45584.4,-10008 -161364.5,-22677 -246634.2,-26989 -53487.9,-2700 -153670.5,-10497 -222629.2,-17314 -149745.4,-14805 -206907.7,-12710 -226889.8,8315 -7558.6,7956 -16994.3,23842 -20967.6,35305 -3971,11463 -18608,36037 -32519.2,54607 -13912.2,18570 -25261.2,36783 -25221,40474 40.3,3683 -2946.5,6739 -6626.3,6775 -3687.8,37 -12133.6,5198 -18770.6,11451 -17026.7,16059 -51480.8,39799 -69304.3,47751 -8307.8,3724 -22599.8,10992 -31760,16189 -24056.9,13650 -191753.9,15225 -218740.4,2095 -10616.8,-5197 -28528.1,-9343 -39805,-9252 -11275.4,53 -26332.2,-3839 -33458,-8730 -10755.8,-7385 -11855.8,-12005 -6480.2,-27195 7753.4,-21896 30154.9,-27433 116762.8,-28868 48129.4,-846 62208.6,-3643 90294.6,-18175 33627.9,-17415 91046.7,-59463 95516.2,-69951 1331.9,-3114 8029.2,-10393 14876.9,-16145 6848.1,-5750 14268.7,-20697 16489.6,-33218 2225.3,-12521 9847.2,-34148 16947.5,-48062 14911.2,-29215 13095.1,-46942 -12238.8,-119502 -26091.4,-74731 -35345.6,-91279 -65068.9,-116361 -37442.5,-31594 -36548.1,-46558 5327.6,-89153 18334.3,-18648 44035.3,-49738 57113,-69090 21281.5,-31491 25973,-35002 44691.9,-33442 17862.9,1479 23704.8,6879 40035,36944 25167.3,46331 59730.5,126511 59865.3,138874 56.2,5388 4473.5,18885 9803.9,29984 5330,11101 13242.5,30773 17577.7,43719 10684.7,31912 16668.4,35220 72159.7,39893 58259.1,4921 58948.7,4104 64081.5,-74100 1957.6,-29866 6600,-57278 10310.5,-60915 3708.5,-3632 6683.9,-12332 6607.8,-19321 -167,-15559 -33570.4,-107513 -42096,-115893 -11337.1,-11144 -6730.2,-43908 10162.1,-72254 9203.1,-15447 19201.3,-28109 22218.6,-28139 3019,-30 16916.5,-7672 30889.3,-16981 34937.9,-23279 87268.4,-28949 109687.6,-11882 14528.5,11058 16783.7,18824 20086.7,69148 3360.3,51189 5437,58113 21414.6,71346 9732.6,8062 24999.1,14675 33926.5,14697 8927.4,116 21704.9,4691 28396.8,10390 10135.5,8623 33733.6,10514 141416.8,11339 148871.3,1140 232105.7,5111 242678.7,11562 4075.2,2492 30018.2,4392 57665.5,4207 27648.5,-230 87971.6,1865 134050.5,4525 80674.7,4662 84532.3,5548 104138.1,23983 l 20359.2,19140 1473.5,85674 c 1761.3,98866 7523,111539 50716.4,111106 37938.4,-287 48651.8,-11975 51635.1,-55862 1410.2,-20897 6451.8,-41029 11182.6,-44738 4742.8,-3712 13066.5,-17312 18523.6,-30229 11302.9,-26750 57972.3,-73852 79659.4,-80394 7988.1,-2412 20500.3,-9557 27805.7,-15883 7304.2,-6323 22311.6,-13200 33349.7,-15278 48240.2,-9084 101316,-26907 113855.8,-38233 8697.2,-7856 24839.6,-12800 44825.8,-13727 25653,-1186 33669.2,1289 44857.5,13928 16041.7,18104 18955.4,31976 25271.9,120265 2613.2,36489 8083,74081 12164,83534 4080.9,9453 9216.3,54815 11416.2,100803 l 3988.9,83618 -20932,27485 -20931.9,27483 -216815.7,1876 c -119249.1,1030 -227253.5,3868 -240009.1,6296 -25178.1,4806 -31176.3,18010 -30636.4,67477 287.8,15388 -4282.4,27955 -12419,35188 -6973.8,6189 -14411,18173 -16523.4,26633 -4034.9,16115 -48415.3,49763 -76997.3,58368 -9185.3,2763 -21188.7,8596 -26670.6,12955 -15706.1,12489 -66035.2,36362 -76894.9,36470 -5410.5,53 -9874.8,-2452 -9909.9,-5584 z"
   id="path4247"
   style="fill:#c09300;fill-opacity:1" /><g
   transform="translate(1269.9915,14327.63)"
   id="g4052"><path
     d="m 7350242.5,4298366.2 c 59571.5,3499.2 -80595.1,-318881.3 -80595.1,-318881.3 157681.4,161190.3 753387.3,199738.2 753387.3,199738.2 C 7665615,4021541.7 7308195.3,2830139.5 7350242.5,1880532.3 7388790.4,927416.27 7213584.5,552472.17 7073417.9,412305.52 6894712.8,233600.47 6320030.5,75909.392 5941587.3,54885.832 5727843,44378.846 5762882.2,216076.04 5762882.2,216076.04 5366914.6,114457.38 4970956.5,75909.392 4792241.9,195052.48 c -168198.1,112135.24 -203237.4,672792.25 -80595.2,574672.72 297848.2,-238276.59 557157.9,-21023.56 735863,238276.6 157691,227769.6 147174.5,872530.5 -80595.1,1625908.2 -238276.6,791925.8 -890045.3,1583861.1 -890045.3,1583861.1 353920.5,0 851506.9,-315372.5 851506.9,-315372.5 l -119143.1,494077.6 c 374934.5,-178705.1 672792.2,-455529.7 672792.2,-455529.7 l 357419.7,374934.6 c 119133.5,-157681.5 357410.1,-374934.6 357410.1,-374934.6 0,0 297857.7,315363 753387.4,357419.7 z"
     id="path140"
     style="fill:#ffffff;stroke:#c09300;stroke-width:108845.1015625;stroke-miterlimit:4;stroke-opacity:1;stroke-dasharray:none" /><path
     d="m 5903048.9,2017190.2 c 0,0 -199738.2,1468217.1 -574672.7,1885208.4"
     id="path142"
     style="fill:none;stroke:#c09300;stroke-width:113538.0078125;stroke-miterlimit:4;stroke-opacity:1;stroke-dasharray:none" /><path
     d="m 6218411.9,1978642.2 c 0,0 -77086.4,1485741.6 -336386.6,1962304.3"
     id="path144"
     style="fill:none;stroke:#c09300;stroke-width:113538.0078125;stroke-miterlimit:4;stroke-opacity:1;stroke-dasharray:none" /><path
     d="m 6498745.2,2038213.8 c 0,0 0,1625908.2 98109.9,1902732.7"
     id="path146"
     style="fill:none;stroke:#c09300;stroke-width:113538.0078125;stroke-miterlimit:4;stroke-opacity:1;stroke-dasharray:none" /><path
     d="m 6852656.1,2118808.9 c 0,0 80595.1,1366598.4 416991.3,1860676"
     id="path148"
     style="fill:none;stroke:#c09300;stroke-width:113538.0078125;stroke-miterlimit:4;stroke-opacity:1;stroke-dasharray:none" /><path
     d="m 5542120.5,1305859.6 c -17514.9,-129659.7 -49055,-231278.4 -94610.8,-297857.8 -178705.1,-259300.16 -438014.8,-476553.19 -735863,-238276.6 0,0 101618.7,-315372.57 318871.7,-325879.55 168198.1,-10516.57 550150.1,126150.94 886546.2,700823.65 0,0 -248793.2,-56072.4 -308364.7,-3508.7 -112125.7,98119.6 -66579.4,164699 -66579.4,164699 z"
     id="path150"
     style="fill:#c09300;fill-opacity:1;stroke:#c09300;stroke-width:31655.171875;stroke-opacity:1" /><path
     d="m 4680116.2,380774.97 c 24522.7,-80595.1 63070.7,-154182.36 112125.7,-185722.49 178714.6,-119143.088 574672.7,-80595.1 970640.3,21023.56 0,0 -35039.2,-171697.194 178705.1,-161190.208 378443.2,21023.56 953125.5,178714.638 1131830.6,357419.688 42047.1,45555.83 91111.7,112135.23 133158.8,213753.9 l -7007.9,0 C 7111965.9,503417.19 6863172.7,510425.05 6803601.2,517432.9 c -94610.9,10506.99 -154182.4,7007.85 -280323.8,38538.4 -59571.5,14025.29 -150683.2,31540.13 -199738.2,70088.12 -38547.9,31540.13 -70078.5,147174.5 -129650,147174.5 -94610.8,0 -87603,-24532.28 -112135.3,-52563.69 -31530.5,-38547.99 -49054.9,-94610.81 -80595.1,-91111.68 -98109.9,17524.43 -255801,-59561.96 -455529.6,-217253.03 C 5345891,254624.03 5268804.6,216076.04 5009494.9,233600.47 c -255801,21023.56 -336386.6,164689.34 -336386.6,164689.34 l 7007.9,-17514.84 z"
     id="path152"
     style="fill:#c09300;stroke:#c09300;stroke-width:31655.171875;stroke-opacity:1" /><path
     d="m 6144834.2,612043.71 c 59562,0 105117.8,-45555.84 105117.8,-105127.38 0,-59571.55 -45555.8,-105117.8 -105117.8,-105117.8 -56072.4,0 -105127.4,45546.25 -105127.4,105117.8 0,59571.54 49055,105127.38 105127.4,105127.38 z"
     id="path154"
     style="fill:#ffffff;stroke:none" /></g>
  
  
  
 <path
   d="m 8684470.9,5648451.8 c -25111.9,1571.4 -50345.7,2360 -75764.4,2360 -554628.6,0 -1842897.4,-284562.1 -2339442.6,-711191.4 -520126.5,394105.9 -1829616.6,711191.4 -2375273,711191.4 -25592.5,0 -50877.5,-3131.2 -75938.4,-7727.3 -1267.5,124304.5 5195.2,253152.1 12912.6,370341.8 28868.8,438021.5 105695,877594.1 222333.4,1300569.1 367166.7,1331265.4 1118680.9,2462604 2196191.6,3320813.6 1078440.7,-858914.2 1830761,-1991303.8 2198764.2,-3323518.9 116822.4,-422923.7 193894,-862455.5 223037.9,-1300457.4 7626,-114800.4 14046.7,-240585.3 13178.7,-362379.1 z"
   id="path3816"
   style="fill:none;stroke:#c09300;stroke-width:81844.4453125;stroke-miterlimit:4;stroke-opacity:1;stroke-dasharray:none" /></g>
</svg>